<svg width="425" height="127" viewBox="0 0 425 127" fill="none" xmlns="http://www.w3.org/2000/svg">
<path d="M76.8272 87.849H38.383C38.4971 91.3309 39.3819 94.4418 41.0372 97.1817C42.6926 99.8646 44.9188 101.948 47.7158 103.432C50.5698 104.916 53.7664 105.658 57.3054 105.658C60.2165 105.658 62.8994 105.145 65.3539 104.117C67.8654 103.033 69.9489 101.463 71.6043 99.4079L74.0873 102.233C72.1465 104.574 69.692 106.372 66.7238 107.628C63.8127 108.883 60.6447 109.511 57.2198 109.511C52.7674 109.511 48.8003 108.541 45.3183 106.6C41.8364 104.659 39.0965 101.977 37.0986 98.5517C35.1579 95.1268 34.1875 91.2167 34.1875 86.8215C34.1875 82.4833 35.1008 78.6018 36.9274 75.1769C38.8111 71.695 41.3797 68.9836 44.6334 67.0428C47.887 65.1021 51.5402 64.1317 55.593 64.1317C59.6457 64.1317 63.2704 65.1021 66.4669 67.0428C69.7206 68.9265 72.2607 71.5808 74.0873 75.0057C75.971 78.4305 76.9128 82.3121 76.9128 86.6502L76.8272 87.849ZM55.593 67.8991C52.4535 67.8991 49.628 68.6126 47.1164 70.0396C44.6048 71.4096 42.5784 73.3789 41.0372 75.9475C39.5531 78.4591 38.6969 81.3131 38.4686 84.5097H72.7173C72.5461 81.3131 71.6899 78.4591 70.1487 75.9475C68.6075 73.4359 66.5811 71.4666 64.0695 70.0396C61.558 68.6126 58.7324 67.8991 55.593 67.8991Z" fill="#354F52"/>
<path d="M108.253 64.1317C113.79 64.1317 118.043 65.5587 121.011 68.4128C123.979 71.2098 125.463 75.3482 125.463 80.828V109.169H121.353V101.206C119.926 103.832 117.843 105.887 115.103 107.371C112.363 108.798 109.081 109.511 105.256 109.511C100.29 109.511 96.3516 108.341 93.4405 106.001C90.5864 103.66 89.1594 100.578 89.1594 96.7536C89.1594 93.0433 90.4723 90.0466 93.098 87.7633C95.7808 85.423 100.033 84.2528 105.856 84.2528H121.182V80.6567C121.182 76.4898 120.04 73.3218 117.757 71.1527C115.531 68.9836 112.249 67.8991 107.911 67.8991C104.942 67.8991 102.088 68.4128 99.3484 69.4403C96.6656 70.4677 94.3823 71.8377 92.4987 73.5501L90.3581 70.4677C92.5843 68.4699 95.2671 66.9287 98.4066 65.8441C101.546 64.7025 104.828 64.1317 108.253 64.1317ZM105.856 106.001C109.566 106.001 112.705 105.145 115.274 103.432C117.9 101.72 119.869 99.2367 121.182 95.983V87.5921H105.941C101.546 87.5921 98.3495 88.3912 96.3516 89.9895C94.4109 91.5878 93.4405 93.7854 93.4405 96.5824C93.4405 99.4935 94.525 101.805 96.6941 103.518C98.8632 105.173 101.917 106.001 105.856 106.001Z" fill="#354F52"/>
<path d="M187.709 64.4742V104.374C187.709 111.795 185.911 117.274 182.315 120.813C178.719 124.352 173.296 126.122 166.047 126.122C161.937 126.122 158.055 125.494 154.402 124.238C150.749 122.982 147.809 121.241 145.583 119.015L147.895 115.762C150.121 117.817 152.804 119.415 155.943 120.557C159.083 121.698 162.422 122.269 165.961 122.269C171.897 122.269 176.293 120.842 179.147 117.988C182.001 115.191 183.428 110.824 183.428 104.888V97.353C181.601 100.607 179.061 103.118 175.807 104.888C172.554 106.657 168.901 107.542 164.848 107.542C160.681 107.542 156.885 106.629 153.46 104.802C150.092 102.918 147.438 100.321 145.497 97.0105C143.556 93.6998 142.586 89.961 142.586 85.794C142.586 81.6271 143.556 77.8883 145.497 74.5776C147.438 71.2669 150.092 68.6982 153.46 66.8716C156.885 65.045 160.681 64.1317 164.848 64.1317C168.958 64.1317 172.668 65.045 175.979 66.8716C179.289 68.6982 181.829 71.2669 183.599 74.5776V64.4742H187.709ZM165.19 103.689C168.672 103.689 171.812 102.947 174.609 101.463C177.406 99.9216 179.575 97.8096 181.116 95.1268C182.714 92.3869 183.513 89.276 183.513 85.794C183.513 82.3121 182.714 79.2297 181.116 76.5469C179.575 73.8641 177.406 71.7806 174.609 70.2965C171.812 68.7553 168.672 67.9847 165.19 67.9847C161.708 67.9847 158.569 68.7553 155.772 70.2965C153.032 71.7806 150.863 73.8641 149.265 76.5469C147.723 79.2297 146.953 82.3121 146.953 85.794C146.953 89.276 147.723 92.3869 149.265 95.1268C150.863 97.8096 153.032 99.9216 155.772 101.463C158.569 102.947 161.708 103.689 165.19 103.689Z" fill="#354F52"/>
<path d="M210.111 45.6374H214.392V109.169H210.111V45.6374Z" fill="#354F52"/>
<path d="M277.645 86.5646C277.645 87.3067 277.587 88.3627 277.473 89.7326H241.598C242.226 93.1004 243.852 95.7832 246.478 97.7811C249.161 99.7219 252.472 100.692 256.41 100.692C261.434 100.692 265.572 99.0369 268.826 95.7262L274.562 102.319C272.507 104.774 269.91 106.629 266.771 107.884C263.631 109.14 260.092 109.768 256.153 109.768C251.13 109.768 246.707 108.769 242.882 106.771C239.058 104.774 236.089 102.005 233.977 98.4661C231.923 94.8699 230.895 90.8172 230.895 86.3078C230.895 81.8554 231.894 77.8597 233.892 74.3207C235.947 70.7246 238.772 67.9276 242.368 65.9298C245.964 63.9319 250.017 62.933 254.527 62.933C258.979 62.933 262.946 63.9319 266.428 65.9298C269.967 67.8705 272.707 70.639 274.648 74.2351C276.646 77.7741 277.645 81.884 277.645 86.5646ZM254.527 71.4952C251.102 71.4952 248.191 72.5226 245.793 74.5776C243.453 76.5754 242.026 79.2582 241.512 82.626H267.456C266.999 79.3153 265.6 76.6325 263.26 74.5776C260.92 72.5226 258.009 71.4952 254.527 71.4952Z" fill="#354F52"/>
<path d="M334.181 63.4467L312.776 112.851C310.778 117.817 308.352 121.299 305.498 123.296C302.644 125.351 299.19 126.379 295.138 126.379C292.854 126.379 290.6 126.008 288.373 125.266C286.147 124.524 284.321 123.496 282.894 122.183L287.175 114.306C288.202 115.276 289.401 116.047 290.771 116.618C292.198 117.189 293.625 117.474 295.052 117.474C296.936 117.474 298.477 116.989 299.675 116.019C300.931 115.048 302.073 113.421 303.1 111.138L303.871 109.34L283.921 63.4467H295.052L309.436 97.2674L323.906 63.4467H334.181Z" fill="#354F52"/>
<path d="M386.879 86.5646C386.879 87.3067 386.822 88.3627 386.708 89.7326H350.833C351.46 93.1004 353.087 95.7832 355.713 97.7811C358.396 99.7219 361.707 100.692 365.645 100.692C370.668 100.692 374.807 99.0369 378.06 95.7262L383.797 102.319C381.742 104.774 379.145 106.629 376.005 107.884C372.866 109.14 369.327 109.768 365.388 109.768C360.365 109.768 355.941 108.769 352.117 106.771C348.292 104.774 345.324 102.005 343.212 98.4661C341.157 94.8699 340.13 90.8172 340.13 86.3078C340.13 81.8554 341.129 77.8597 343.127 74.3207C345.181 70.7246 348.007 67.9276 351.603 65.9298C355.199 63.9319 359.252 62.933 363.761 62.933C368.214 62.933 372.181 63.9319 375.663 65.9298C379.202 67.8705 381.942 70.639 383.883 74.2351C385.88 77.7741 386.879 81.884 386.879 86.5646ZM363.761 71.4952C360.337 71.4952 357.425 72.5226 355.028 74.5776C352.688 76.5754 351.261 79.2582 350.747 82.626H376.69C376.234 79.3153 374.835 76.6325 372.495 74.5776C370.155 72.5226 367.243 71.4952 363.761 71.4952Z" fill="#354F52"/>
<path fill-rule="evenodd" clip-rule="evenodd" d="M212.306 44.9071C204.663 36.7964 168.898 1.38056 125.999 0.0666089C108.308 -0.47326 89.6483 2.36455 71.6146 5.10709L71.5118 5.12273C42.818 9.50344 15.7213 13.6354 3.74348 1.05353C3.41724 0.707643 2.9863 0.478646 2.51708 0.401841C2.04786 0.325035 1.5664 0.404683 1.14691 0.628508C0.727416 0.852333 0.393181 1.20791 0.195719 1.64044C-0.00174379 2.07296 -0.0514733 2.55843 0.0541943 3.022C0.327053 4.25114 7.00016 33.2494 26.6857 43.3958C35.5796 47.9781 45.6697 47.9468 56.6709 43.3024C57.2642 43.051 57.8397 42.8118 58.4165 42.5721C58.7401 42.4377 59.064 42.303 59.3918 42.166C63.0734 46.2196 75.8375 57.5032 97.641 48.5225C101.604 46.8997 105.503 45.4066 109.367 43.9901C113.13 47.6117 126.795 57.6444 156.308 48.6931C177.565 42.2448 196.637 40.3853 205.15 43.9027C208.515 47.1482 210.433 49.2766 210.524 49.3789C210.84 49.7379 211.267 49.9815 211.737 50.0715C211.926 50.1076 212.117 50.1182 212.306 50.104C212.494 50.1182 212.685 50.1076 212.874 50.0715C213.344 49.9815 213.771 49.7379 214.087 49.3789C214.179 49.2766 216.096 47.1482 219.461 43.9027C227.974 40.3853 247.046 42.2448 268.303 48.6931C297.816 57.6444 311.481 47.6117 315.244 43.9901C319.108 45.4066 323.008 46.8997 326.97 48.5225C348.774 57.5032 361.538 46.2196 365.219 42.166C365.547 42.303 365.871 42.4376 366.194 42.572C366.771 42.8117 367.347 43.0509 367.94 43.3024C378.942 47.9468 389.032 47.9781 397.925 43.3958C417.611 33.2494 424.284 4.25114 424.557 3.022C424.663 2.55843 424.613 2.07296 424.415 1.64044C424.218 1.20791 423.884 0.852333 423.464 0.628508C423.045 0.404683 422.563 0.325035 422.094 0.401841C421.625 0.478646 421.194 0.707643 420.868 1.05353C408.89 13.6354 381.793 9.50344 353.099 5.12273L352.997 5.1071C334.963 2.36456 316.303 -0.473261 298.612 0.0666089C255.713 1.38056 219.948 36.7964 212.306 44.9071ZM6.17253 8.48708C9.20467 17.3767 16.1172 33.0952 28.6754 39.5514C36.3717 43.5152 45.2072 43.4298 54.9779 39.3168C118.763 12.3915 144.311 11.5868 161.148 13.2116C150.337 8.29433 138.359 4.77132 125.871 4.39119C108.555 3.87001 90.0706 6.68499 72.1954 9.40721L72.1488 9.4143C44.8451 13.5772 20.8086 17.2406 6.17253 8.48708ZM166.729 18.219C150.764 16.241 129.089 13.5616 63.6387 40.4027C67.6421 44.3514 78.2018 51.8428 95.9836 44.5149C100.402 42.6959 104.841 41.0108 109.263 39.4162C109.319 39.4112 109.366 39.3875 109.409 39.3654C137.659 29.2039 165.089 23.722 180.129 23.8098C177.561 22.1172 174.867 20.4457 172.06 18.8357C170.309 18.6663 168.548 18.4472 166.729 18.219ZM114.042 42.2833C118.786 45.8595 131.068 51.819 155.052 44.5443C172.425 39.2726 188.152 37.0297 198.828 38.0837C195.649 35.3029 191.924 32.2327 187.689 29.0894C181.218 26.2302 150.629 29.503 114.042 42.2833ZM418.439 8.48708C415.407 17.3767 408.494 33.0952 395.936 39.5514C388.239 43.5152 379.404 43.4298 369.633 39.3168C305.848 12.3915 280.3 11.5868 263.464 13.2116C274.274 8.29433 286.253 4.77132 298.74 4.39119C316.056 3.87001 334.541 6.68499 352.416 9.40721L352.462 9.4143C379.766 13.5772 403.803 17.2406 418.439 8.48708ZM257.883 18.219C273.847 16.241 295.522 13.5616 360.973 40.4027C356.969 44.3514 346.409 51.8428 328.628 44.5149C324.21 42.6959 319.771 41.0108 315.348 39.4162C315.292 39.4112 315.246 39.3875 315.202 39.3654C286.953 29.2039 259.522 23.722 244.482 23.8098C247.05 22.1172 249.744 20.4457 252.551 18.8357C254.302 18.6663 256.063 18.4472 257.883 18.219ZM310.57 42.2833C305.825 45.8595 293.543 51.819 269.56 44.5443C252.187 39.2726 236.46 37.0297 225.783 38.0837C228.962 35.3029 232.687 32.2327 236.922 29.0894C243.393 26.2302 273.982 29.503 310.57 42.2833Z" fill="#354F52"/>
</svg>
